<svg width="150" height="150" viewBox="0 0 150 150" fill="none" xmlns="http://www.w3.org/2000/svg">
<g clip-path="url(#clip0_10_17)">
<path d="M40 120L45 115" stroke="#4CAF50" stroke-width="2" stroke-miterlimit="10" stroke-linecap="round" stroke-linejoin="round"/>
<path d="M109.69 51.34L110 50" stroke="#4CAF50" stroke-width="2" stroke-miterlimit="10" stroke-linecap="round" stroke-linejoin="round"/>
<path d="M40 50L40.31 51.34" stroke="#4CAF50" stroke-width="2" stroke-miterlimit="10" stroke-linecap="round" stroke-linejoin="round"/>
<path d="M115 115L110 120" stroke="#4CAF50" stroke-width="2" stroke-miterlimit="10" stroke-linecap="round" stroke-linejoin="round"/>
<path d="M45 45L40 40" stroke="#4CAF50" stroke-width="2" stroke-miterlimit="10" stroke-linecap="round" stroke-linejoin="round"/>
<path d="M110 40L115 45" stroke="#4CAF50" stroke-width="2" stroke-miterlimit="10" stroke-linecap="round" stroke-linejoin="round"/>
<path d="M75 125V120" stroke="#4CAF50" stroke-width="2" stroke-miterlimit="10" stroke-linecap="round" stroke-linejoin="round"/>
<path d="M75 30V25" stroke="#4CAF50" stroke-width="2" stroke-miterlimit="10" stroke-linecap="round" stroke-linejoin="round"/>
<path d="M125 75H120" stroke="#4CAF50" stroke-width="2" stroke-miterlimit="10" stroke-linecap="round" stroke-linejoin="round"/>
<path d="M30 75H25" stroke="#4CAF50" stroke-width="2" stroke-miterlimit="10" stroke-linecap="round" stroke-linejoin="round"/>
<path d="M112.5 105C112.5 106.326 111.973 107.598 111.036 108.536C110.098 109.473 108.826 110 107.5 110H97.5C96.174 110 94.9021 109.473 93.9645 108.536C93.0268 107.598 92.5 106.326 92.5 105V90H112.5V105Z" fill="#BDBDBD"/>
<path d="M62.5 105C62.5 106.326 61.9732 107.598 61.0355 108.536C60.0979 109.473 58.8261 110 57.5 110H47.5C46.1739 110 44.9021 109.473 43.9645 108.536C43.0268 107.598 42.5 106.326 42.5 105V90H62.5V105Z" fill="#BDBDBD"/>
<path d="M112.5 87.5H42.5V85H112.5V87.5Z" fill="#757575"/>
<path d="M96.25 85H58.75V82.5H96.25V85Z" fill="#616161"/>
<path d="M103.75 82.5H98.75V80H103.75V82.5Z" fill="#9E9E9E"/>
<path d="M56.25 82.5H51.25V80H56.25V82.5Z" fill="#9E9E9E"/>
<path d="M102.5 80H52.5V77.5H102.5V80Z" fill="#BDBDBD"/>
<path d="M112.5 77.5H42.5L40 70H115L112.5 77.5Z" fill="#4CAF50"/>
<path d="M60 70V67.5L52.5 62.5V60C52.5 58.6739 53.0268 57.4021 53.9645 56.4645C54.9021 55.5268 56.1739 55 57.5 55H62.5C63.8261 55 65.0979 55.5268 66.0355 56.4645C66.9732 57.4021 67.5 58.6739 67.5 60V62.5L65 65H62.5" stroke="#212121" stroke-width="2" stroke-miterlimit="10" stroke-linecap="round" stroke-linejoin="round"/>
<path d="M60 67.5L62.5 65" stroke="#212121" stroke-width="2" stroke-miterlimit="10" stroke-linecap="round" stroke-linejoin="round"/>
<path d="M60 70V67.5" stroke="#212121" stroke-width="2" stroke-miterlimit="10" stroke-linecap="round" stroke-linejoin="round"/>
<path d="M95 62.5L92.5 70H62.5L65 65" stroke="#212121" stroke-width="2" stroke-miterlimit="10" stroke-linecap="round" stroke-linejoin="round"/>
<path d="M62.5 70L81.25 43.75" stroke="#212121" stroke-width="2" stroke-miterlimit="10" stroke-linecap="round" stroke-linejoin="round"/>
<path d="M92.5 70L73.75 43.75" stroke="#212121" stroke-width="2" stroke-miterlimit="10" stroke-linecap="round" stroke-linejoin="round"/>
<path d="M85 62.5C85 63.8807 83.8807 65 82.5 65C81.1193 65 80 63.8807 80 62.5C80 61.1193 81.1193 60 82.5 60C83.8807 60 85 61.1193 85 62.5Z" fill="#FFC107"/>
</g>
<defs>
<clipPath id="clip0_10_17">
<rect width="150" height="150" fill="white"/>
</clipPath>
</defs>
</svg>