<svg width="150" height="150" viewBox="0 0 150 150" fill="none" xmlns="http://www.w3.org/2000/svg">
<g clip-path="url(#clip0_10_9)">
<path d="M74.9999 137.5C109.497 137.5 137.5 109.497 137.5 75C137.5 40.5025 109.497 12.5 74.9999 12.5C40.5025 12.5 12.5 40.5025 12.5 75C12.5 109.497 40.5025 137.5 74.9999 137.5Z" stroke="#E0E0E0" stroke-width="2" stroke-miterlimit="10" stroke-linecap="round" stroke-linejoin="round"/>
<path d="M75 12.5C75 12.5 75 37.5 62.5 37.5C50 37.5 50 25 50 25" stroke="#E0E0E0" stroke-width="2" stroke-miterlimit="10" stroke-linecap="round" stroke-linejoin="round"/>
<path d="M75 12.5C75 12.5 75 37.5 87.5 37.5C100 37.5 100 25 100 25" stroke="#E0E0E0" stroke-width="2" stroke-miterlimit="10" stroke-linecap="round" stroke-linejoin="round"/>
<path d="M12.5 75C12.5 75 37.5 75 37.5 62.5C37.5 50 25 50 25 50" stroke="#E0E0E0" stroke-width="2" stroke-miterlimit="10" stroke-linecap="round" stroke-linejoin="round"/>
<path d="M12.5 75C12.5 75 37.5 75 37.5 87.5C37.5 100 25 100 25 100" stroke="#E0E0E0" stroke-width="2" stroke-miterlimit="10" stroke-linecap="round" stroke-linejoin="round"/>
<path d="M137.5 75C137.5 75 112.5 75 112.5 62.5C112.5 50 125 50 125 50" stroke="#E0E0E0" stroke-width="2" stroke-miterlimit="10" stroke-linecap="round" stroke-linejoin="round"/>
<path d="M137.5 75C137.5 75 112.5 75 112.5 87.5C112.5 100 125 100 125 100" stroke="#E0E0E0" stroke-width="2" stroke-miterlimit="10" stroke-linecap="round" stroke-linejoin="round"/>
<path d="M75 137.5C75 137.5 75 112.5 62.5 112.5C50 112.5 50 125 50 125" stroke="#E0E0E0" stroke-width="2" stroke-miterlimit="10" stroke-linecap="round" stroke-linejoin="round"/>
<path d="M75 137.5C75 137.5 75 112.5 87.5 112.5C100 112.5 100 125 100 125" stroke="#E0E0E0" stroke-width="2" stroke-miterlimit="10" stroke-linecap="round" stroke-linejoin="round"/>
<g>
<path d="M103.22 81.332H113.8V75.771C113.8 74.331 112.95 73.123 111.66 72.703L107.56 71.229C106.96 71.006 106.63 70.354 106.85 69.756L107.82 66.953C108.04 66.355 107.72 65.703 107.12 65.48L103.53 64.167C102.93 63.944 102.28 64.265 102.05 64.863L101.08 67.666C100.86 68.264 101.18 68.916 101.78 69.139L103.22 69.737V81.332Z" fill="#BDBDBD"/>
<path d="M117.72 90.001C119.82 90.001 121.52 88.305 121.52 86.208C121.52 84.111 119.82 82.415 117.72 82.415C115.62 82.415 113.92 84.111 113.92 86.208C113.92 88.305 115.62 90.001 117.72 90.001Z" fill="#BDBDBD"/>
<path d="M89.79 90.001C91.89 90.001 93.59 88.305 93.59 86.208C93.59 84.111 91.89 82.415 89.79 82.415C87.69 82.415 85.99 84.111 85.99 86.208C85.99 88.305 87.69 90.001 89.79 90.001Z" fill="#BDBDBD"/>
<path d="M117.65 85.111L89.72 85.111L89.72 87.305L117.65 87.305L117.65 85.111Z" fill="#616161"/>
<path d="M103.68 81.332L103.68 68.749L102.58 69.21C102.26 69.345 101.9 69.191 101.76 68.87L100.73 65.913C100.59 65.592 100.74 65.231 101.06 65.096L104.83 63.699C105.15 63.564 105.51 63.718 105.65 64.039L106.62 66.996C106.76 67.317 106.61 67.678 106.29 67.813L104.74 68.428L104.74 81.332L103.68 81.332Z" fill="#757575"/>
<path d="M96.44 68.794L90.72 68.794C90.38 68.794 90.11 68.523 90.11 68.183C90.11 67.843 90.38 67.572 90.72 67.572L96.44 67.572C96.78 67.572 97.05 67.843 97.05 68.183C97.05 68.523 96.78 68.794 96.44 68.794Z" fill="#616161"/>
<path d="M93.36 67.437C92.1 67.437 91.07 66.406 91.07 65.145C91.07 63.884 92.1 62.853 93.36 62.853C94.62 62.853 95.65 63.884 95.65 65.145C95.65 66.406 94.62 67.437 93.36 67.437Z" fill="#BDBDBD"/>
<path d="M93.59 65.078C93.59 64.385 93.03 63.824 92.34 63.824L89.65 63.824L89.65 66.332L92.34 66.332C93.03 66.332 93.59 65.771 93.59 65.078Z" fill="#757575"/>
<path d="M98.81 74.453L94.02 78.438L92.39 76.81L97.18 72.825L98.81 74.453Z" fill="#757575"/>
<path d="M110.15 68.794L104.43 68.794C104.09 68.794 103.82 68.523 103.82 68.183C103.82 67.843 104.09 67.572 104.43 67.572L110.15 67.572C110.49 67.572 110.76 67.843 110.76 68.183C110.76 68.523 110.49 68.794 110.15 68.794Z" fill="#616161"/>
<path d="M107.07 67.437C105.81 67.437 104.78 66.406 104.78 65.145C104.78 63.884 105.81 62.853 107.07 62.853C108.33 62.853 109.36 63.884 109.36 65.145C109.36 66.406 108.33 67.437 107.07 67.437Z" fill="#BDBDBD"/>
<path d="M107.29 65.078C107.29 64.385 106.74 63.824 106.05 63.824L103.35 63.824L103.35 66.332L106.05 66.332C106.74 66.332 107.29 65.771 107.29 65.078Z" fill="#757575"/>
<path d="M112.52 74.453L107.73 78.438L106.1 76.81L110.89 72.825L112.52 74.453Z" fill="#757575"/>
<path d="M100.32 60.165C110.97 60.165 119.53 51.606 119.53 40.953C119.53 30.3 110.97 21.741 100.32 21.741C89.67 21.741 81.11 30.3 81.11 40.953C81.11 51.606 89.67 60.165 100.32 60.165Z" fill="#E0E0E0"/>
<path d="M100.32 58.119C109.81 58.119 117.53 50.395 117.53 40.906C117.53 31.417 109.81 23.693 100.32 23.693C90.83 23.693 83.11 31.417 83.11 40.906C83.11 50.395 90.83 58.119 100.32 58.119Z" fill="white"/>
<path d="M100.32 24.364L100.32 40.906L109.89 50.48" stroke="#4CAF50" stroke-width="2" stroke-miterlimit="10" stroke-linecap="round" stroke-linejoin="round"/>
<path d="M100.32 21.741C89.67 21.741 81.11 30.3 81.11 40.953C81.11 51.606 89.67 60.165 100.32 60.165C110.97 60.165 119.53 51.606 119.53 40.953C119.53 30.3 110.97 21.741 100.32 21.741ZM100.32 58.119C90.83 58.119 83.11 50.395 83.11 40.906C83.11 31.417 90.83 23.693 100.32 23.693C109.81 23.693 117.53 31.417 117.53 40.906C117.53 50.395 109.81 58.119 100.32 58.119Z" fill="#4CAF50"/>
<path d="M86.11 96.269L86.11 81.332L83.08 81.332L81.18 77.291L78.67 77.291L77.92 81.332L74.89 81.332L79.42 68.183L83.84 68.183L86.11 96.269Z" fill="#BDBDBD"/>
<path d="M80.09 75.693L81.25 69.81L82.4 75.693L80.09 75.693Z" fill="#757575"/>
<path d="M81.81 63.824C80.88 63.824 80.11 63.053 80.11 62.122C80.11 61.191 80.88 60.42 81.81 60.42C82.74_10_9 60.42 83.51 61.191 83.51 62.122C83.51 63.053 82.74 63.824 81.81 63.824Z" fill="#757575"/>
<path d="M80.86 63.824L82.76 63.824C83.2 63.824 83.51 64.135 83.51 64.576C83.51 65.017 83.2 65.332 82.76 65.332L80.86 65.332C80.42 65.332 80.11 65.017 80.11 64.576C80.11 64.135 80.42 63.824 80.86 63.824Z" fill="#4CAF50"/>
<path d="M85.05 65.771C85.05 65.771 83.73 68.32 81.81 68.32C79.89 68.32 78.57 65.771 78.57 65.771L81.81 64.576L85.05 65.771Z" fill="#4CAF50"/>
<path d="M57.48 93.387L57.48 81.332L54.79 81.332C54.79 81.332 54.59 79.235 53.69 77.291C52.79 75.347 48.97 74.453 48.97 74.453L51.96 71.945C51.96 71.945 54.04 72.542 55.44 74.724C56.84 76.906 56.44 80.078 56.44 80.078L58.11 80.078L58.11 69.21L53.48 69.21L54.04 64.576L64.81 64.576L65.37 69.21L60.67 69.21L60.67 81.332L59.04 81.332C59.04 81.332 58.74 85.048 58.04 93.387L57.48 93.387Z" fill="#BDBDBD"/>
<path d="M60.11 65.771C60.67 65.771 61.13 66.231 61.13 66.792C61.13 67.353 60.67 67.813 60.11 67.813C59.55 67.813 59.09 67.353 59.09 66.792C59.09 66.231 59.55 65.771 60.11 65.771Z" fill="#757575"/>
<path d="M63.78 68.183L60.11 68.183L60.11 67.048L63.78 67.048L63.78 68.183Z" fill="#757575"/>
<path d="M48.81 74.453C48.81 74.453 51.54 77.002 52.88 77.291" stroke="#FAFAFA" stroke-width="0.2" stroke-miterlimit="10" stroke-linecap="round" stroke-linejoin="round"/>
<path d="M46.73 70.941L46.73 81.332L40.48 81.332C40.48 81.332 39.55 77.291 37.75 75.693C35.95 74.095 33.39 74.29 33.39 74.29L35.29 70.941C35.29 70.941 37.47 71.191 38.68 72.825C39.89 74.459 39.55 78.438 39.55 78.438L41.45 78.438L41.45 68.183L46.73 68.183L46.73 70.941Z" fill="#BDBDBD"/>
<path d="M44.48 64.576C44.48 64.576 42.48 68.048 40.48 68.183C38.48 68.318 36.48 64.576 36.48 64.576L40.48 63.382L44.48 64.576Z" fill="#4CAF50"/>
<path d="M37.75 75.693C37.75 75.693 39.02 73.144 39.55 72.825" stroke="#FAFAFA" stroke-width="0.2" stroke-miterlimit="10" stroke-linecap="round" stroke-linejoin="round"/>
</g>
</g>
<defs>
<clipPath id="clip0_10_9">
<rect width="150" height="150" fill="white"/>
</clipPath>
</defs>
</svg>